<svg width="74" height="74" viewBox="0 0 74 74" fill="none" xmlns="http://www.w3.org/2000/svg">
<path d="M24.0501 6.16667H49.9501C59.8168 6.16667 67.8334 14.1833 67.8334 24.05V49.95C67.8334 54.693 65.9493 59.2417 62.5955 62.5954C59.2417 65.9492 54.693 67.8333 49.9501 67.8333H24.0501C14.1834 67.8333 6.16675 59.8167 6.16675 49.95V24.05C6.16675 19.307 8.05088 14.7583 11.4047 11.4046C14.7584 8.0508 19.3071 6.16667 24.0501 6.16667ZM23.4334 12.3333C20.4895 12.3333 17.6662 13.5028 15.5845 15.5844C13.5029 17.6661 12.3334 20.4894 12.3334 23.4333V50.5667C12.3334 56.7025 17.2976 61.6667 23.4334 61.6667H50.5667C53.5107 61.6667 56.334 60.4972 58.4156 58.4156C60.4973 56.3339 61.6668 53.5106 61.6668 50.5667V23.4333C61.6668 17.2975 56.7026 12.3333 50.5667 12.3333H23.4334ZM53.1876 16.9583C54.2098 16.9583 55.1901 17.3644 55.9129 18.0872C56.6357 18.81 57.0418 19.7903 57.0418 20.8125C57.0418 21.8347 56.6357 22.815 55.9129 23.5378C55.1901 24.2606 54.2098 24.6667 53.1876 24.6667C52.1654 24.6667 51.1851 24.2606 50.4623 23.5378C49.7395 22.815 49.3334 21.8347 49.3334 20.8125C49.3334 19.7903 49.7395 18.81 50.4623 18.0872C51.1851 17.3644 52.1654 16.9583 53.1876 16.9583ZM37.0001 21.5833C41.0888 21.5833 45.0101 23.2076 47.9013 26.0988C50.7925 28.99 52.4168 32.9112 52.4168 37C52.4168 41.0888 50.7925 45.01 47.9013 47.9012C45.0101 50.7924 41.0888 52.4167 37.0001 52.4167C32.9113 52.4167 28.99 50.7924 26.0989 47.9012C23.2077 45.01 21.5834 41.0888 21.5834 37C21.5834 32.9112 23.2077 28.99 26.0989 26.0988C28.99 23.2076 32.9113 21.5833 37.0001 21.5833ZM37.0001 27.75C34.5468 27.75 32.1941 28.7246 30.4593 30.4593C28.7246 32.194 27.7501 34.5467 27.7501 37C27.7501 39.4533 28.7246 41.806 30.4593 43.5407C32.1941 45.2755 34.5468 46.25 37.0001 46.25C39.4533 46.25 41.8061 45.2755 43.5408 43.5407C45.2755 41.806 46.2501 39.4533 46.2501 37C46.2501 34.5467 45.2755 32.194 43.5408 30.4593C41.8061 28.7246 39.4533 27.75 37.0001 27.75Z" fill="#002A3A"/>
</svg>
