<svg width="79" height="74" viewBox="0 0 79 74" fill="none" xmlns="http://www.w3.org/2000/svg">
<path d="M66.7572 6.16667H11.5121C10.8911 6.15851 10.2745 6.2661 9.69748 6.48327C9.12045 6.70045 8.59433 7.02297 8.14915 7.43241C7.70398 7.84185 7.34847 8.33019 7.10294 8.86955C6.8574 9.4089 6.72665 9.9887 6.71814 10.5758V63.4242C6.72665 64.0113 6.8574 64.5911 7.10294 65.1305C7.34847 65.6698 7.70398 66.1582 8.14915 66.5676C8.59433 66.977 9.12045 67.2996 9.69748 67.5167C10.2745 67.7339 10.8911 67.8415 11.5121 67.8333H66.7572C67.3782 67.8415 67.9948 67.7339 68.5718 67.5167C69.1488 67.2996 69.675 66.977 70.1201 66.5676C70.5653 66.1582 70.9208 65.6698 71.1664 65.1305C71.4119 64.5911 71.5426 64.0113 71.5512 63.4242V10.5758C71.5426 9.9887 71.4119 9.4089 71.1664 8.86955C70.9208 8.33019 70.5653 7.84185 70.1201 7.43241C69.675 7.02297 69.1488 6.70045 68.5718 6.48327C67.9948 6.2661 67.3782 6.15851 66.7572 6.16667ZM26.3833 57.7817H16.5996V30.0317H26.3833V57.7817ZM21.4915 26.1467C20.1422 26.1467 18.8481 25.6399 17.8941 24.7379C16.94 23.8358 16.404 22.6124 16.404 21.3367C16.404 20.061 16.94 18.8375 17.8941 17.9355C18.8481 17.0334 20.1422 16.5267 21.4915 16.5267C22.2079 16.4498 22.9335 16.517 23.6206 16.7236C24.3078 16.9303 24.941 17.2719 25.4788 17.726C26.0166 18.1801 26.447 18.7364 26.7416 19.3587C27.0362 19.9809 27.1885 20.6549 27.1885 21.3367C27.1885 22.0184 27.0362 22.6925 26.7416 23.3147C26.447 23.9369 26.0166 24.4933 25.4788 24.9474C24.941 25.4015 24.3078 25.743 23.6206 25.9497C22.9335 26.1564 22.2079 26.2235 21.4915 26.1467ZM61.6697 57.7817H51.886V42.8892C51.886 39.1583 50.4837 36.7225 46.929 36.7225C45.8288 36.7301 44.7576 37.0564 43.8596 37.6573C42.9616 38.2582 42.28 39.1049 41.9067 40.0833C41.6515 40.808 41.5409 41.5713 41.5806 42.3342V57.7508H31.7969V30.0008H41.5806V33.9167C42.4693 32.4586 43.762 31.2574 45.3194 30.4424C46.8767 29.6274 48.6397 29.2295 50.4185 29.2917C56.9409 29.2917 61.6697 33.2692 61.6697 41.81V57.7817Z" fill="#002A3A"/>
</svg>
