<svg width="410" height="132" viewBox="0 0 410 132" fill="none" xmlns="http://www.w3.org/2000/svg">
<path fill-rule="evenodd" clip-rule="evenodd" d="M148.826 42.7409H195.528C208.138 42.7409 214.446 44.3218 214.446 55.9503L185.548 59.7917C161.088 62.9757 150.791 76.086 150.791 86.2574H148.841L148.826 42.7409ZM148.826 42.7409H125.207V90.1201C125.207 101.195 129.607 106.732 138.408 106.732H148.857C148.857 106.732 151.819 116.934 157.744 122.783C163.669 128.631 171.794 131.858 182.12 131.858H127.182C104.038 131.858 92.4654 119.849 92.4654 95.8303V42.7409H47.9172C45.7691 42.7409 42.9137 43.028 41.8366 43.2431C39.9311 43.6238 38.2506 44.1776 36.7954 44.9044C35.3404 45.6312 34.1971 46.5656 33.3654 47.7077C32.5339 48.8497 32.1182 50.1476 32.1182 51.6009C32.1182 53.5392 32.7418 55.2002 33.9892 56.5847C35.2363 57.9689 36.8648 59.1631 38.8742 60.1666C40.8838 61.1702 43.1187 62.07 45.5786 62.866C48.0385 63.6619 50.4812 64.4754 52.9065 65.3059C57.2721 66.8286 61.2218 68.4899 64.7559 70.2896C68.29 72.0891 71.3217 74.2001 73.8508 76.6227C76.3799 79.0454 78.3204 81.8832 79.6716 85.1363C81.0228 88.3897 81.6985 92.2657 81.6985 96.7648C81.6985 103.064 80.3297 108.445 77.5928 112.91C74.8555 117.374 71.2176 121.008 66.6788 123.811C62.14 126.615 56.9082 128.656 50.9837 129.937C45.0588 131.217 38.7128 131.625 32.5339 131.858C24.0367 132.178 0 131.858 0 131.858V109.535C0 109.535 23.8634 109.933 31.3906 109.535C36.0435 109.289 39.4868 109.525 45.1629 107.147C48.9636 105.555 50.2041 103.133 50.2041 99.8797C50.2041 96.924 49.4419 95.6331 47.9172 94.2489C46.3927 92.8643 44.4352 92.0926 42.0445 91.0545C39.654 90.0161 37.0381 89.0817 34.1971 88.2512C31.356 87.4207 28.6187 86.4863 25.9855 85.4479C21.7587 83.8561 18.034 82.143 14.8118 80.3086C11.5897 78.4743 8.887 76.346 6.70438 73.9234C4.52148 71.5008 2.85836 68.6975 1.71501 65.5135C0.571673 62.3295 0 58.5572 0 54.1966C0 48.2442 1.2993 43.1219 3.89791 38.8307C6.49652 34.5392 9.96114 31.0264 14.2921 28.2925C18.623 25.5583 23.5775 23.5509 29.1558 22.2706C34.7341 20.9901 41.2736 20.6699 46.566 20.3496C51.3385 20.0611 56.1287 20.0479 60.9099 20.0479H92.4654V0H125.207V20.0479H148.826L148.794 22.9453L148.826 42.7409ZM241.622 65.4193C241.622 35.1719 226.447 20.0479 196.096 20.0479H274.467V41.2925L274.882 39.0853C277.595 25.2401 289.435 20.0479 302.946 20.0479H317.94V0H350.681V20.0479H374.588V42.7409H350.681V90.1201C350.681 101.195 355.083 106.732 363.881 106.732H374.588V131.858H352.656C329.512 131.858 317.94 119.849 317.94 95.8303V42.7409H297.23C284.854 42.7409 274.467 51.8359 274.467 74.9051V131.858H241.622V65.4193ZM189.601 131.556C203.597 131.556 214.235 113.698 214.235 113.698V131.556H189.601ZM212.684 82.9144C212.684 90.336 210.47 96.4748 206.045 101.33C201.617 106.186 195.889 108.614 188.852 108.614C183.795 108.614 179.782 107.252 176.818 104.528C173.854 101.804 172.372 98.3103 172.372 94.0467C172.372 84.6514 178.459 79.164 190.63 77.5848L212.684 74.7426V82.9144ZM394.18 81.9353V92.3878H385.705V61.3044H406.677V69.3379H394.18V73.9021H404.619V81.9353H394.18ZM395.676 47.291C393.033 47.291 390.862 46.8288 389.167 45.9042C387.469 44.9798 386.215 43.5994 385.399 41.7633C384.586 39.9273 384.177 37.642 384.177 34.9075V20.1409H391.47V35.5716C391.47 37.0822 391.816 38.2606 392.511 39.1069C393.206 39.9535 394.261 40.3765 395.676 40.3765C397.092 40.3765 398.147 39.9535 398.842 39.1069C399.537 38.2606 399.883 37.0822 399.883 35.5716V20.1409H407.176V34.9075C407.176 37.642 406.77 39.9273 405.954 41.7633C405.138 43.5994 403.89 44.9798 402.209 45.9042C400.525 46.8288 398.349 47.291 395.676 47.291ZM396.458 132C393.572 132 391.09 131.414 389.006 130.242C386.921 129.07 385.318 127.449 384.197 125.378C383.076 123.308 382.516 120.905 382.516 118.171C382.516 116.139 382.848 114.277 383.517 112.585C384.185 110.892 385.134 109.427 386.362 108.19C387.59 106.953 389.06 106.002 390.77 105.338C392.479 104.674 394.373 104.342 396.458 104.342C399.718 104.342 402.414 105.064 404.553 106.51C406.689 107.955 408.237 110.097 409.2 112.936L402.789 115.593C402.174 114.186 401.359 113.105 400.344 112.35C399.329 111.595 398.035 111.217 396.458 111.217C395.175 111.217 394.042 111.491 393.053 112.038C392.064 112.585 391.297 113.379 390.75 114.421C390.202 115.462 389.928 116.712 389.928 118.171C389.928 119.629 390.202 120.879 390.75 121.921C391.297 122.963 392.064 123.75 393.053 124.285C394.042 124.819 395.175 125.085 396.458 125.085C398.035 125.085 399.329 124.714 400.344 123.972C401.359 123.23 402.174 122.155 402.789 120.749L409.2 123.406C408.237 126.244 406.689 128.386 404.553 129.832C402.414 131.277 399.718 132 396.458 132Z" fill="#002A3A"/>
</svg>
